<svg xmlns="http://www.w3.org/2000/svg" viewBox="0 0 1600 1000" role="img" aria-labelledby="title desc">
<title id="title">AI協働基盤.orchestrated-v1</title><desc id="desc">実行統制型 / 旧・連絡将校MVP — runtimeがCodex CLIを統制</desc>
<defs>
 <marker id="arrowB" markerWidth="10" markerHeight="10" refX="9" refY="3" orient="auto"><path d="M0,0 L0,6 L9,3 z" fill="#174ea6"/></marker>
 <marker id="arrowG" markerWidth="10" markerHeight="10" refX="9" refY="3" orient="auto"><path d="M0,0 L0,6 L9,3 z" fill="#0b7a53"/></marker>
 <marker id="arrowP" markerWidth="10" markerHeight="10" refX="9" refY="3" orient="auto"><path d="M0,0 L0,6 L9,3 z" fill="#6b3fa0"/></marker>
 <style>text{font-family:Noto Sans JP,Yu Gothic,Meiryo,sans-serif;fill:#172033}.title{font-size:48px;font-weight:700;fill:#16357a}.subtitle{font-size:25px;font-weight:700;fill:#244a92}.node-title{font-size:27px;font-weight:700}.small{font-size:18px}.body{font-size:20px}.badge{font-size:17px;font-weight:700}.edge{font-size:17px;font-weight:700}</style>
</defs>
<rect width="1600" height="1000" fill="#fff"/><text x="800" y="62" text-anchor="middle" class="title">AI協働基盤.orchestrated-v1</text><text x="800" y="98" text-anchor="middle" class="subtitle">実行統制型 / 旧・連絡将校MVP — runtimeがCodex CLIを統制</text>
<rect x="35" y="185" width="265" height="245" rx="18" fill="#eaf2ff" stroke="#174ea6" stroke-width="3"/><text x="63" y="228" class="node-title" fill="#174ea6">人間（主宰・最終判断）</text><text x="65" y="267" class="small">• 目的設定・優先順位</text><text x="65" y="298" class="small">• 承認・最終責任</text><text x="65" y="329" class="small">• 非言語情報・現場感覚</text><text x="65" y="360" class="small">• 成果物の最終判断</text><rect x="63" y="375" width="209" height="34" rx="9" fill="#fff" stroke="#174ea6" stroke-width="2"/><text x="167.5" y="399" class="small" text-anchor="middle" fill="#174ea6">原則：GitHubは直接編集しない</text>
<rect x="330" y="185" width="290" height="260" rx="18" fill="#eaf8f2" stroke="#0b7a53" stroke-width="3"/><text x="358" y="230" class="node-title" fill="#0b7a53">ChatGPT</text><rect x="495" y="201" width="115" height="30" rx="10" fill="#eaf8f2" stroke="#0b7a53" stroke-width="2"/><text x="552.5" y="224" class="badge" text-anchor="middle" fill="#0b7a53">Primary</text><text x="360" y="272" class="small">• 要件整理・SPDD化</text><text x="360" y="303" class="small">• 設計統合・説明</text><text x="360" y="334" class="small">• 実行方針・判断支援</text><text x="360" y="365" class="small">• 結果統合・報告</text><rect x="354" y="390" width="242" height="34" rx="9" fill="#fff" stroke="#5f6b7a" stroke-width="2"/><text x="475" y="414" class="small" text-anchor="middle" fill="#5f6b7a">Alternate: Claude</text>
<rect x="670" y="185" width="250" height="260" rx="18" fill="#eaf2ff" stroke="#174ea6" stroke-width="3"/><text x="795" y="230" class="node-title" text-anchor="middle" fill="#174ea6">runtime</text><text x="795" y="260" class="body" text-anchor="middle" fill="#174ea6">実行統制</text><text x="695" y="300" class="small">• 依頼受付・分解</text><text x="695" y="328" class="small">• 状態管理・再試行</text><text x="695" y="356" class="small">• ログ・成果物回収</text><text x="695" y="384" class="small">• 異常診断</text>
<rect x="970" y="185" width="260" height="260" rx="18" fill="#eaf8f2" stroke="#0b7a53" stroke-width="3"/><text x="1100" y="230" class="node-title" text-anchor="middle" fill="#0b7a53">Codex CLI</text><rect x="1120" y="237" width="115" height="30" rx="10" fill="#eaf8f2" stroke="#0b7a53" stroke-width="2"/><text x="1177.5" y="260" class="badge" text-anchor="middle" fill="#0b7a53">Primary</text><text x="995" y="310" class="small">• コード生成・変更</text><text x="995" y="338" class="small">• テスト・修正反復</text><text x="995" y="366" class="small">• commit / PR</text><text x="995" y="394" class="small">• ローカル実行</text>
<rect x="500" y="500" width="420" height="250" rx="20" fill="#fff" stroke="#174ea6" stroke-width="5"/><text x="710" y="545" class="node-title" text-anchor="middle">GitHub（正本・履歴基盤）</text><rect x="528" y="570" width="364" height="48" rx="9" fill="#eaf2ff" stroke="#174ea6" stroke-width="2"/><text x="548" y="600" class="body" fill="#174ea6" font-weight="700">正本・決定記録・議事録</text><rect x="528" y="630" width="364" height="48" rx="9" fill="#eaf2ff" stroke="#174ea6" stroke-width="2"/><text x="548" y="660" class="body" fill="#174ea6" font-weight="700">Issue / PR / Commit / Docs</text><text x="710" y="725" class="small" text-anchor="middle" fill="#174ea6">全主体が参照する共通基準面</text>
<rect x="950" y="525" width="210" height="205" rx="18" fill="#eaf2ff" stroke="#174ea6" stroke-width="3"/><text x="1055" y="569" class="node-title" text-anchor="middle" fill="#174ea6">GitHub Actions</text><text x="980" y="607" class="small">• CI実行</text><text x="980" y="636" class="small">• テスト・Lint</text><text x="980" y="665" class="small">• 静的解析</text><text x="980" y="694" class="small">• 結果・レポート</text>
<rect x="1180" y="500" width="370" height="220" rx="18" fill="#f3edfb" stroke="#6b3fa0" stroke-width="3"/><text x="1365" y="544" class="node-title" text-anchor="middle" fill="#6b3fa0">品質ゲート</text><text x="1208" y="582" class="small">• PRレビュー（人 / AI）</text><text x="1208" y="612" class="small">• CI・関連テスト</text><text x="1208" y="642" class="small">• 正本との整合性</text><text x="1208" y="672" class="small">• 承認条件・マージ条件</text><rect x="1205" y="668" width="320" height="32" rx="9" fill="#fff" stroke="#6b3fa0" stroke-width="2"/><text x="1365" y="691" class="small" text-anchor="middle" fill="#6b3fa0">承認 / 条件付き / 差戻し</text>
<path d="M300,300 L330,300" fill="none" stroke="#174ea6" stroke-width="4" marker-end="url(#arrowB)"/><path d="M330,345 L300,345" fill="none" stroke="#0b7a53" stroke-width="4" stroke-dasharray="10 8" marker-end="url(#arrowG)"/><text x="315" y="282" class="edge" text-anchor="middle" fill="#174ea6">相談 / 報告</text><path d="M620,300 L670,300" fill="none" stroke="#0b7a53" stroke-width="4" marker-end="url(#arrowG)"/><path d="M670,350 L620,350" fill="none" stroke="#174ea6" stroke-width="4" marker-end="url(#arrowB)"/><text x="645" y="282" class="edge" text-anchor="middle" fill="#0b7a53">実行依頼 / 結果</text><path d="M920,300 L970,300" fill="none" stroke="#0b7a53" stroke-width="4" marker-end="url(#arrowG)"/><path d="M970,350 L920,350" fill="none" stroke="#174ea6" stroke-width="4" marker-end="url(#arrowB)"/><text x="945" y="282" class="edge" text-anchor="middle" fill="#0b7a53">指示 / ログ</text><path d="M1100,445 C1100,475 955,500 920,570" fill="none" stroke="#174ea6" stroke-width="4" marker-end="url(#arrowB)"/><path d="M920,630 C1000,660 1090,500 1120,445" fill="none" stroke="#0b7a53" stroke-width="4" stroke-dasharray="10 8" marker-end="url(#arrowG)"/><text x="1045" y="490" class="edge" text-anchor="middle" fill="#174ea6">実装・履歴 / 修正指示</text><path d="M920,600 L950,600" fill="none" stroke="#174ea6" stroke-width="4" marker-end="url(#arrowB)"/><path d="M1160,650 L920,650" fill="none" stroke="#0b7a53" stroke-width="4" stroke-dasharray="10 8" marker-end="url(#arrowG)"/><path d="M1160,600 L1180,600" fill="none" stroke="#6b3fa0" stroke-width="4" marker-end="url(#arrowP)"/><path d="M1180,660 L1160,660" fill="none" stroke="#0b7a53" stroke-width="4" stroke-dasharray="10 8" marker-end="url(#arrowG)"/>
<rect x="30" y="790" width="1540" height="175" rx="16" fill="#fafbfc" stroke="#5f6b7a" stroke-width="2"/><text x="60" y="825" class="node-title" fill="#174ea6">このモードの特徴</text><rect x="60" y="845" width="250" height="48" rx="12" fill="#eaf2ff" stroke="#174ea6" stroke-width="2"/><text x="185" y="876" class="small" text-anchor="middle" fill="#174ea6">自動化に強い</text><rect x="330" y="845" width="250" height="48" rx="12" fill="#eaf2ff" stroke="#174ea6" stroke-width="2"/><text x="455" y="876" class="small" text-anchor="middle" fill="#174ea6">大量処理向き</text><rect x="600" y="845" width="250" height="48" rx="12" fill="#eaf2ff" stroke="#174ea6" stroke-width="2"/><text x="725" y="876" class="small" text-anchor="middle" fill="#174ea6">再試行・ログ</text><rect x="870" y="845" width="250" height="48" rx="12" fill="#eaf2ff" stroke="#174ea6" stroke-width="2"/><text x="995" y="876" class="small" text-anchor="middle" fill="#174ea6">単一障害点あり</text><text x="60" y="925" class="small" fill="#0b7a53">主な利用場面：反復実装修正、定型Issue、ローカルWindows検証、夜間処理</text><text x="60" y="952" class="small" fill="#b42318">注意：runtime・Codex CLI・共有利用枠への依存がある</text></svg>